<?xml version="1.0" encoding="UTF-8"?>
<svg version="1.1" xmlns="http://www.w3.org/2000/svg" width="500" height="500">
<path d="M0 0 C0.84860596 0.47727539 1.69721191 0.95455078 2.5715332 1.44628906 C4.18870916 2.37528815 5.78910255 3.33435789 7.36791992 4.32714844 C11.32359082 6.70009077 11.32359082 6.70009077 15.76831055 6.72705078 C17.9384719 5.6966537 19.82742273 4.48440356 21.80859375 3.125 C22.61796387 2.61904297 23.42733398 2.11308594 24.26123047 1.59179688 C26.90684535 -0.06885971 29.51563219 -1.77712652 32.12109375 -3.5 C33.01376953 -4.08523437 33.90644531 -4.67046875 34.82617188 -5.2734375 C38.16172959 -7.46200509 41.48916367 -9.66204662 44.80859375 -11.875 C48.42568311 -12.51330989 50.76166491 -12.58222327 53.8671875 -10.484375 C55.93277552 -8.68821151 57.86942551 -6.80605456 59.80859375 -4.875 C60.79859375 -4.070625 61.78859375 -3.26625 62.80859375 -2.4375 C65.07708993 0.46901073 65.29742902 2.26388478 65.20068359 5.90258789 C64.46319081 10.08278518 62.03817732 13.21812225 59.62109375 16.625 C58.64787254 18.05169811 57.67521377 19.47878005 56.703125 20.90625 C55.23757908 23.04877399 53.76679193 25.18359895 52.25927734 27.296875 C51.54698975 28.34101563 51.54698975 28.34101563 50.8203125 29.40625 C50.16808716 30.3353418 50.16808716 30.3353418 49.50268555 31.28320312 C48.56615157 33.16540241 48.56615157 33.16540241 49.56518555 35.23193359 C51.10550736 37.57704557 52.89341398 39.32355848 54.93359375 41.25 C59.68165554 45.90704463 63.82289948 50.80563111 67.80859375 56.125 C68.54078125 57.10210937 69.27296875 58.07921875 70.02734375 59.0859375 C75.53144818 66.72005495 79.85503114 74.62750129 83.86328125 83.1328125 C84.77189031 85.04764977 85.70773752 86.94646398 86.65234375 88.84375 C97.06458632 110.0105942 103.85934446 134.41368283 104.01171875 158.078125 C104.01873306 158.81194901 104.02574738 159.54577301 104.03297424 160.30183411 C104.05038929 162.6596192 104.05682744 165.01715293 104.05859375 167.375 C104.05926849 168.18145966 104.05994324 168.98791931 104.06063843 169.81881714 C104.04424049 182.15389856 103.54301253 194.05157219 100.80859375 206.125 C100.64230469 206.8890918 100.47601563 207.65318359 100.3046875 208.44042969 C90.81863457 250.969567 67.95695482 288.08670825 33.80859375 315.125 C32.64457031 316.10726562 32.64457031 316.10726562 31.45703125 317.109375 C16.29850866 329.783725 -2.2517691 340.44270094 -21.19140625 346.125 C-22.11356934 346.40230957 -23.03573242 346.67961914 -23.98583984 346.96533203 C-62.9382221 358.47329148 -101.05205581 359.22493909 -140.19140625 348.125 C-140.93422852 347.92068359 -141.67705078 347.71636719 -142.44238281 347.50585938 C-168.58945969 340.17490324 -191.0628949 324.94109751 -211.19140625 307.125 C-212.15820312 306.29226563 -213.125 305.45953125 -214.12109375 304.6015625 C-220.56188141 298.94580159 -225.95231643 292.89481519 -231.19140625 286.125 C-232.00480469 285.11566406 -232.81820312 284.10632813 -233.65625 283.06640625 C-263.74282561 245.4799886 -276.38624179 194.75718118 -271.56640625 147.1875 C-266.99290272 108.67983872 -250.94443356 71.23438708 -224.19140625 43.125 C-222.99627641 41.75662655 -221.80814607 40.3820907 -220.62890625 39 C-209.19119628 25.94724302 -196.18553624 15.80672232 -181.19140625 7.125 C-179.96833704 6.38870637 -178.74569474 5.65170322 -177.5234375 4.9140625 C-156.41268307 -7.6209509 -132.4681289 -15.4903817 -108.19140625 -18.875 C-107.54187988 -18.9692627 -106.89235352 -19.06352539 -106.22314453 -19.16064453 C-70.79615262 -23.76936887 -31.23111261 -17.70250882 0 0 Z M-208.60424805 50.4621582 C-223.73415237 66.31353158 -235.8988193 85.86104447 -244.19140625 106.125 C-244.45937012 106.77952148 -244.72733398 107.43404297 -245.00341797 108.10839844 C-260.15532603 146.31278702 -258.96846115 195.06395373 -243.16650391 232.88476562 C-224.65406185 275.4161047 -191.75925857 309.97398259 -148.4128418 327.4128418 C-105.3893302 343.99255699 -59.41540421 344.32786943 -16.77441406 326.09130859 C-12.1277434 323.97336221 -7.65335703 321.6061074 -3.19140625 319.125 C-2.18722656 318.58488281 -1.18304688 318.04476563 -0.1484375 317.48828125 C39.21582743 295.54841429 67.75207068 259.19348843 80.80859375 216.125 C82.68748993 208.87467121 83.84369901 201.54517644 84.80859375 194.125 C84.9281543 193.25810547 85.04771484 192.39121094 85.17089844 191.49804688 C91.20107764 146.39838729 79.85053174 101.09062522 52.21337891 64.90429688 C47.93519749 59.48556449 43.38150614 54.29506246 38.80859375 49.125 C35.46001713 53.14019141 32.61916163 57.35466344 29.80859375 61.75 C29.10379883 62.84586426 29.10379883 62.84586426 28.38476562 63.96386719 C23.66781155 71.31274492 18.99648466 78.69091315 14.33984375 86.078125 C13.89511719 86.78259766 13.45039063 87.48707031 12.9921875 88.21289062 C12.00858567 89.80191074 11.07391081 91.4210916 10.15234375 93.046875 C8.80859375 95.125 8.80859375 95.125 5.80859375 97.125 C-0.74840141 98.1252196 -0.74840141 98.1252196 -4.08253479 95.81416321 C-4.70313278 95.24167343 -5.32373077 94.66918365 -5.96313477 94.0793457 C-6.65770782 93.44227692 -7.35228088 92.80520813 -8.06790161 92.14883423 C-11.47271381 88.90383286 -14.83531804 85.62382433 -18.15625 82.29296875 C-18.87502823 81.57514725 -19.59380646 80.85732574 -20.33436584 80.11775208 C-21.83717555 78.61561748 -23.33874491 77.11224103 -24.83911133 75.60766602 C-27.14355385 73.29781804 -29.45335014 70.99341909 -31.76367188 68.68945312 C-33.22818575 67.22427928 -34.69238983 65.75879571 -36.15625 64.29296875 C-36.847827 63.60341599 -37.53940399 62.91386322 -38.25193787 62.20341492 C-38.88672562 61.56547501 -39.52151337 60.9275351 -40.17553711 60.27026367 C-40.73542831 59.70957687 -41.29531952 59.14889008 -41.87217712 58.57121277 C-44.39219008 55.80863359 -44.83911326 52.97245914 -44.78417969 49.2590332 C-43.98342156 46.37623799 -42.7268046 45.55310073 -40.33203125 43.79296875 C-39.5136377 43.19121826 -38.69524414 42.58946777 -37.85205078 41.96948242 C-33.41699361 38.8948947 -28.8925787 35.98430998 -24.31640625 33.125 C-23.39988281 32.5475 -22.48335937 31.97 -21.5390625 31.375 C-19.69929951 30.21576819 -17.85849128 29.05819344 -16.01660156 27.90234375 C-11.3961166 24.99557478 -6.79385365 22.06021724 -2.19140625 19.125 C-8.56434419 12.31180248 -18.71396917 9.98729735 -27.31640625 7.125 C-28.31016769 6.79400803 -28.31016769 6.79400803 -29.32400513 6.45632935 C-93.37639655 -14.69563198 -161.40857578 2.67349271 -208.60424805 50.4621582 Z M34.3359375 15.1875 C33.61374023 15.64656738 32.89154297 16.10563477 32.14746094 16.57861328 C30.95878418 17.34407471 30.95878418 17.34407471 29.74609375 18.125 C28.91625977 18.65464355 28.08642578 19.18428711 27.23144531 19.72998047 C25.40613939 20.89583183 23.58214971 22.06374575 21.75927734 23.23339844 C18.68202172 25.20614182 15.59932399 27.17015822 12.515625 29.1328125 C3.26193326 35.02866001 -5.98753914 40.93088146 -15.12890625 47 C-15.7312207 47.39848145 -16.33353516 47.79696289 -16.95410156 48.20751953 C-19.22827501 49.72927883 -21.25069504 51.18428879 -23.19140625 53.125 C-22.40491699 53.90363403 -22.40491699 53.90363403 -21.60253906 54.69799805 C-19.21283257 57.06683028 -16.82709305 59.4396198 -14.44140625 61.8125 C-13.61640625 62.62912109 -12.79140625 63.44574219 -11.94140625 64.28710938 C-11.1421875 65.08310547 -10.34296875 65.87910156 -9.51953125 66.69921875 C-8.78637695 67.42713623 -8.05322266 68.15505371 -7.29785156 68.9050293 C-5.11125366 71.20947235 -3.1410965 73.61853062 -1.19140625 76.125 C2.80149057 74.79403439 3.57449146 72.39418112 5.43359375 68.875 C8.0516665 64.11003511 10.78398937 59.56735245 13.93359375 55.125 C19.97301464 46.59012395 25.49575026 37.72496609 31.06347656 28.87792969 C32.29597801 26.93365348 33.54139247 24.99753425 34.79589844 23.06738281 C35.43688477 22.07834961 36.07787109 21.08931641 36.73828125 20.0703125 C37.32593262 19.17070801 37.91358398 18.27110352 38.51904297 17.34423828 C39.97606556 15.2645749 39.97606556 15.2645749 39.80859375 13.125 C37.31240403 13.125 36.43051554 13.84697005 34.3359375 15.1875 Z " fill="#080808" transform="translate(334.19140625,112.875)"/>
<path d="M0 0 C1.7265625 2.23828125 1.7265625 2.23828125 3.625 5.3125 C22.3810212 34.43909497 51.65781652 55.30814781 85.56811523 62.83398438 C120.81153068 69.90816743 155.7323947 63.72804927 186.0625 44.25 C192.7705942 39.62588707 198.9435482 34.43683486 205 29 C205.80308594 28.28199219 206.60617187 27.56398438 207.43359375 26.82421875 C215.5549479 19.13716161 222.42027182 9.68138267 228 0 C231.65564909 0.68761019 234.51867272 2.25449545 237.75 4.0625 C238.73484375 4.61035156 239.7196875 5.15820312 240.734375 5.72265625 C241.48203125 6.14417969 242.2296875 6.56570313 243 7 C241.40259482 18.77820085 229.69874221 29.45470968 222 38 C221.39542969 38.67804688 220.79085937 39.35609375 220.16796875 40.0546875 C212.32772256 48.35145435 202.56685492 55.0924112 193.125 61.4375 C192.53138672 61.83815674 191.93777344 62.23881348 191.32617188 62.65161133 C182.99971702 68.13813379 174.33202209 71.44940006 164.875 74.5625 C163.67391602 74.96017578 162.47283203 75.35785156 161.23535156 75.76757812 C153.22774462 78.3767252 145.33499371 80.6962021 137 82 C135.40019287 82.25475098 135.40019287 82.25475098 133.76806641 82.51464844 C116.93123479 84.68334231 97.38810998 84.44910043 81 80 C80.21270508 79.79068848 79.42541016 79.58137695 78.61425781 79.36572266 C42.88089004 69.6745041 11.57491328 50.23002352 -9.5 19.1875 C-10.15101685 18.23556763 -10.15101685 18.23556763 -10.81518555 17.2644043 C-13.04240935 13.88265492 -14.56749212 11.05476141 -15 7 C-13.06730041 5.82539808 -11.12866687 4.66055528 -9.1875 3.5 C-8.10855469 2.8503125 -7.02960938 2.200625 -5.91796875 1.53125 C-3 0 -3 0 0 0 Z " fill="#070707" transform="translate(136,347)"/>
<path d="M0 0 C-0.28484846 1.73030291 -0.57819938 3.45920714 -0.875 5.1875 C-1.11863281 6.63189453 -1.11863281 6.63189453 -1.3671875 8.10546875 C-1.98573658 10.93475808 -2.74816542 13.38969308 -4 16 C-6.78033205 17.39016602 -7.97546299 16.56406355 -10.9375 15.6875 C-45.70190554 6.5455936 -81.82211537 14.68358828 -112.6328125 31.96875 C-117.4933301 34.90084878 -121.75069644 38.25145612 -126 42 C-126.80695313 42.67546875 -127.61390625 43.3509375 -128.4453125 44.046875 C-145.99468747 59.12063281 -158.13971172 78.81235412 -167 100 C-172.36095277 98.41078475 -177.70843973 96.81027062 -183 95 C-178.8828765 77.15913149 -167.72825716 59.81431081 -156 46 C-155.16210938 45.00484375 -154.32421875 44.0096875 -153.4609375 42.984375 C-133.3102319 19.75688001 -104.46877899 4.53838267 -75 -3 C-74.33162109 -3.17934082 -73.66324219 -3.35868164 -72.97460938 -3.54345703 C-50.47729098 -9.37630966 -21.64469912 -8.26433966 0 0 Z " fill="#0A0A0A" transform="translate(292,138)"/>
<path d="M0 0 C5.28 0 10.56 0 16 0 C16.33 9.24 16.66 18.48 17 28 C18.588125 26.535625 20.17625 25.07125 21.8125 23.5625 C27.36679943 18.48845954 33.107351 13.67840617 39 9 C39.76828125 8.38640625 40.5365625 7.7728125 41.328125 7.140625 C47.37790348 2.43524174 47.37790348 2.43524174 51 2 C53.25 3.8125 53.25 3.8125 55 6 C55 6.66 55 7.32 55 8 C55.66 8 56.32 8 57 8 C58.6875 9.75 58.6875 9.75 60 12 C59.62101761 15.49058112 58.34566111 16.9349511 55.69140625 19.12890625 C55.02689453 19.68900391 54.36238281 20.24910156 53.67773438 20.82617188 C52.97970703 21.39916016 52.28167969 21.97214844 51.5625 22.5625 C50.18605729 23.70634051 48.81224576 24.85335653 47.44140625 26.00390625 C46.82982666 26.50736572 46.21824707 27.0108252 45.58813477 27.52954102 C43.75915416 29.10812632 43.75915416 29.10812632 42 32 C42.41342651 32.8189978 42.41342651 32.8189978 42.83520508 33.65454102 C48.73652165 45.36106944 54.54660297 57.10143441 60.1184082 68.96899414 C62.81699061 74.67644171 65.7387058 80.15533786 68.9675293 85.58325195 C70 88 70 88 69.8269043 90.21069336 C68.45872919 93.17123525 65.99409298 93.88769686 63.125 95.25 C61.52011719 96.03117187 61.52011719 96.03117187 59.8828125 96.828125 C57 98 57 98 54 98 C53.69408936 97.35788574 53.38817871 96.71577148 53.07299805 96.05419922 C47.46168997 84.28831734 41.82011737 72.53929725 36 60.875 C35.55615967 59.98280762 35.11231934 59.09061523 34.6550293 58.17138672 C32.24230294 53.35697835 29.72056899 48.64763869 27 44 C26.44570312 44.42152344 25.89140625 44.84304688 25.3203125 45.27734375 C24.59585938 45.82519531 23.87140625 46.37304688 23.125 46.9375 C22.40570313 47.48277344 21.68640625 48.02804687 20.9453125 48.58984375 C19 50 19 50 17 51 C16.67 65.19 16.34 79.38 16 94 C10.72 94 5.44 94 0 94 C0 62.98 0 31.96 0 0 Z " fill="#070707" transform="translate(156,242)"/>
<path d="M0 0 C1.42103279 0.00848969 1.42103279 0.00848969 2.87077332 0.01715088 C5.8870261 0.03948416 8.90207697 0.0896752 11.91796875 0.140625 C13.96677968 0.16069393 16.01560929 0.17894401 18.06445312 0.1953125 C23.07858584 0.23933906 28.09182374 0.3083459 33.10546875 0.390625 C33.10546875 5.670625 33.10546875 10.950625 33.10546875 16.390625 C22.87546875 16.390625 12.64546875 16.390625 2.10546875 16.390625 C2.10546875 23.980625 2.10546875 31.570625 2.10546875 39.390625 C4.008125 39.34421875 5.91078125 39.2978125 7.87109375 39.25 C10.36586974 39.21248457 12.86066268 39.17608417 15.35546875 39.140625 C17.23685547 39.09035156 17.23685547 39.09035156 19.15625 39.0390625 C20.36152344 39.02617187 21.56679687 39.01328125 22.80859375 39 C24.47390137 38.9685791 24.47390137 38.9685791 26.17285156 38.93652344 C29.10546875 39.390625 29.10546875 39.390625 31.46582031 40.75683594 C34.07192487 44.94305631 33.67606665 49.08717368 33.63671875 53.921875 C33.64054565 54.94994263 33.64437256 55.97801025 33.64831543 57.03723145 C33.65103549 59.20923848 33.64366781 61.38127823 33.62695312 63.55322266 C33.6055457 66.87867229 33.62675253 70.20196135 33.65234375 73.52734375 C33.64970049 75.6380256 33.64457556 77.74870611 33.63671875 79.859375 C33.64481567 80.85424927 33.6529126 81.84912354 33.66125488 82.87414551 C33.60845371 86.75933334 33.54513728 89.56773393 31.69824219 93.02441406 C27.59079857 95.18875064 23.65935009 94.88141775 19.08984375 94.78125 C18.11887756 94.77559021 17.14791138 94.76993042 16.14752197 94.76409912 C13.04966706 94.74172811 9.95297342 94.69152973 6.85546875 94.640625 C4.75392297 94.62056097 2.65235903 94.60231003 0.55078125 94.5859375 C-4.59810295 94.5418608 -9.74612028 94.47282758 -14.89453125 94.390625 C-14.89453125 89.110625 -14.89453125 83.830625 -14.89453125 78.390625 C-4.33453125 78.390625 6.22546875 78.390625 17.10546875 78.390625 C17.10546875 70.800625 17.10546875 63.210625 17.10546875 55.390625 C15.130625 55.43703125 13.15578125 55.4834375 11.12109375 55.53125 C8.53256718 55.56876488 5.94402429 55.60516534 3.35546875 55.640625 C2.05351563 55.67414063 0.7515625 55.70765625 -0.58984375 55.7421875 C-1.84023437 55.75507813 -3.090625 55.76796875 -4.37890625 55.78125 C-6.10705566 55.8126709 -6.10705566 55.8126709 -7.87011719 55.84472656 C-10.89453125 55.390625 -10.89453125 55.390625 -13.26635742 54.02441406 C-15.85482311 49.83722441 -15.48501112 45.68817587 -15.4609375 40.859375 C-15.46713608 39.83130737 -15.47333466 38.80323975 -15.47972107 37.74401855 C-15.48681994 35.57203112 -15.4836441 33.39998927 -15.47094727 31.22802734 C-15.45707995 27.90230372 -15.49115492 24.57939226 -15.52929688 21.25390625 C-15.53024805 19.14322848 -15.52838936 17.03254718 -15.5234375 14.921875 C-15.53669571 13.92700073 -15.54995392 12.93212646 -15.56361389 11.90710449 C-15.4727847 5.18348192 -15.4727847 5.18348192 -12.97363281 1.75683594 C-8.5859336 -0.19000555 -4.74823484 -0.1071618 0 0 Z " fill="#060606" transform="translate(107.89453125,241.609375)"/>
<path d="M0 0 C15.84 0 31.68 0 48 0 C48 5.28 48 10.56 48 16 C42.72 16 37.44 16 32 16 C32 36.46 32 56.92 32 78 C37.28 78 42.56 78 48 78 C48 83.28 48 88.56 48 94 C32.16 94 16.32 94 0 94 C0 88.72 0 83.44 0 78 C5.28 78 10.56 78 16 78 C16 57.54 16 37.08 16 16 C10.72 16 5.44 16 0 16 C0 10.72 0 5.44 0 0 Z " fill="#060606" transform="translate(234,242)"/>
<path d="M0 0 C5.61 0 11.22 0 17 0 C17 25.74 17 51.48 17 78 C27.23 78 37.46 78 48 78 C48 83.28 48 88.56 48 94 C41.80701358 94.09888089 35.61448668 94.17147486 29.42089844 94.21972656 C27.31404618 94.23984126 25.20724975 94.26713667 23.10058594 94.30175781 C20.07212553 94.35028168 17.04440322 94.37297016 14.015625 94.390625 C12.60292328 94.42159271 12.60292328 94.42159271 11.16168213 94.45318604 C10.28107117 94.45348816 9.40046021 94.45379028 8.49316406 94.45410156 C7.72039124 94.46298401 6.94761841 94.47186646 6.15142822 94.48101807 C2.93478359 93.76183805 1.88128754 92.7089174 0 90 C-0.37390367 86.97019893 -0.50671131 84.3102351 -0.45410156 81.28417969 C-0.45468567 80.40577423 -0.45526978 79.52736877 -0.45587158 78.62234497 C-0.45308705 75.72178494 -0.4219777 72.82225528 -0.390625 69.921875 C-0.38316392 67.90977541 -0.37747036 65.89766854 -0.37347412 63.88555908 C-0.35820736 58.59175527 -0.31891633 53.29839099 -0.2746582 48.00476074 C-0.23372812 42.60219265 -0.21546793 37.19955348 -0.1953125 31.796875 C-0.15242315 21.19769256 -0.08206454 10.59895161 0 0 Z " fill="#0A0A0A" transform="translate(296,242)"/>
<path d="M0 0 C5.28 0 10.56 0 16 0 C16 25.74 16 51.48 16 78 C26.56 78 37.12 78 48 78 C48 83.28 48 88.56 48 94 C41.80701358 94.09888089 35.61448668 94.17147486 29.42089844 94.21972656 C27.31404618 94.23984126 25.20724975 94.26713667 23.10058594 94.30175781 C20.07212553 94.35028168 17.04440322 94.37297016 14.015625 94.390625 C12.60292328 94.42159271 12.60292328 94.42159271 11.16168213 94.45318604 C10.28107117 94.45348816 9.40046021 94.45379028 8.49316406 94.45410156 C7.72039124 94.46298401 6.94761841 94.47186646 6.15142822 94.48101807 C2.93478359 93.76183805 1.88128754 92.7089174 0 90 C-0.37390367 86.97019893 -0.50671131 84.3102351 -0.45410156 81.28417969 C-0.45468567 80.40577423 -0.45526978 79.52736877 -0.45587158 78.62234497 C-0.45308705 75.72178494 -0.4219777 72.82225528 -0.390625 69.921875 C-0.38316392 67.90977541 -0.37747036 65.89766854 -0.37347412 63.88555908 C-0.35820736 58.59175527 -0.31891633 53.29839099 -0.2746582 48.00476074 C-0.23372812 42.60219265 -0.21546793 37.19955348 -0.1953125 31.796875 C-0.15242328 21.19772364 -0.08415913 10.59889838 0 0 Z " fill="#050505" transform="translate(359,242)"/>
<path d="M0 0 C1.89600369 0.31146472 3.79179587 0.62421717 5.6875 0.9375 C6.74324219 1.11152344 7.79898437 1.28554687 8.88671875 1.46484375 C11.60249604 1.93167121 14.30124235 2.44422616 17 3 C16.85786703 4.89611434 16.71113093 6.79188394 16.5625 8.6875 C16.48128906 9.74324219 16.40007813 10.79898438 16.31640625 11.88671875 C16.03548319 14.65086297 15.59843148 17.28945741 15 20 C12.74971671 19.85860519 10.49977794 19.71171997 8.25 19.5625 C6.37054687 19.44068359 6.37054687 19.44068359 4.453125 19.31640625 C1.81682447 19.07484478 -0.48037294 18.75716066 -3 18 C-2.51679152 11.7945858 -1.66681876 6.00054754 0 0 Z " fill="#1D1D1D" transform="translate(12,222)"/>
<path d="M0 0 C1.640625 2.8359375 1.640625 2.8359375 3.25 6.375 C3.79140625 7.53773437 4.3328125 8.70046875 4.890625 9.8984375 C6 13 6 13 5 16 C2.3828125 17.60546875 2.3828125 17.60546875 -0.875 19.1875 C-1.94492188 19.71730469 -3.01484375 20.24710938 -4.1171875 20.79296875 C-7 22 -7 22 -10 22 C-11.17441535 19.89983377 -12.33964012 17.79541245 -13.5 15.6875 C-13.83386719 15.09259766 -14.16773438 14.49769531 -14.51171875 13.88476562 C-16.06825114 11.04171156 -17 9.29339012 -17 6 C-14.73495035 4.80015203 -12.46410112 3.61505231 -10.1875 2.4375 C-9.54490234 2.09525391 -8.90230469 1.75300781 -8.24023438 1.40039062 C-3.33984375 -1.11328125 -3.33984375 -1.11328125 0 0 Z " fill="#1B1B1B" transform="translate(151,53)"/>
<path d="M0 0 C5.68502535 1.64566523 10.76681636 4.29032784 16 7 C15.40165275 11.14298667 13.99335715 14.18194377 11.9375 17.8125 C11.38964844 18.78832031 10.84179688 19.76414062 10.27734375 20.76953125 C9.85582031 21.50558594 9.43429687 22.24164063 9 23 C4.85701333 22.40165275 1.81805623 20.99335715 -1.8125 18.9375 C-2.78832031 18.38964844 -3.76414062 17.84179688 -4.76953125 17.27734375 C-5.50558594 16.85582031 -6.24164063 16.43429688 -7 16 C-5.35433477 10.31497465 -2.70967216 5.23318364 0 0 Z " fill="#1A1A1A" transform="translate(352,53)"/>
<path d="M0 0 C0.33848652 1.89492006 0.67056911 3.79098466 1 5.6875 C1.185625 6.74324219 1.37125 7.79898438 1.5625 8.88671875 C1.95221949 11.65999051 2.16103686 14.20701698 2 17 C-0.05922402 19.05922402 -4.21708124 18.41427579 -7.0625 18.5625 C-8.20041992 18.62727539 -8.20041992 18.62727539 -9.36132812 18.69335938 C-11.24065438 18.79973633 -13.12030244 18.90039934 -15 19 C-16.20064402 15.01249528 -17.24190388 11.21270799 -17.625 7.0625 C-17.69976562 6.29035156 -17.77453125 5.51820313 -17.8515625 4.72265625 C-17.90054687 4.15417969 -17.94953125 3.58570313 -18 3 C-11.75469224 0.82140427 -6.63698075 -0.13013688 0 0 Z " fill="#1A1A1A" transform="translate(489,225)"/>
<path d="M0 0 C12.85714286 -0.14285714 12.85714286 -0.14285714 18 1 C18.02735618 2.70824133 18.04655506 4.41661405 18.0625 6.125 C18.07410156 7.07632812 18.08570312 8.02765625 18.09765625 9.0078125 C18 12 18 12 17 18 C11.39 18 5.78 18 0 18 C0 12.06 0 6.12 0 0 Z " fill="#1D1D1D" transform="translate(7,254)"/>
<path d="M0 0 C4.00735217 0.60110283 6.55469371 2.66602028 9.75 5.0625 C10.73484375 5.79597656 11.7196875 6.52945313 12.734375 7.28515625 C13.48203125 7.85105469 14.2296875 8.41695312 15 9 C13.6744419 12.62276315 12.05653045 15.63505348 9.875 18.8125 C9.33617188 19.60269531 8.79734375 20.39289063 8.2421875 21.20703125 C7.83226562 21.79871094 7.42234375 22.39039063 7 23 C2.93774452 22.42176904 0.15237654 21.10882263 -3.3125 18.9375 C-4.19550781 18.38964844 -5.07851563 17.84179688 -5.98828125 17.27734375 C-6.65214844 16.85582031 -7.31601562 16.43429688 -8 16 C-7.43555175 11.65136348 -5.84572036 8.82172345 -3.4375 5.1875 C-2.79683594 4.21167969 -2.15617187 3.23585937 -1.49609375 2.23046875 C-0.75552734 1.12638672 -0.75552734 1.12638672 0 0 Z " fill="#131313" transform="translate(50,134)"/>
<path d="M0 0 C2.45087023 2.03205063 3.62211329 4.15946117 5.1015625 6.97265625 C5.62234375 7.94074219 6.143125 8.90882813 6.6796875 9.90625 C7.8515625 12.53515625 7.8515625 12.53515625 7.8515625 15.53515625 C5.33203125 17.359375 5.33203125 17.359375 2.0390625 19.22265625 C0.96011719 19.84527344 -0.11882812 20.46789062 -1.23046875 21.109375 C-4.1484375 22.53515625 -4.1484375 22.53515625 -7.1484375 22.53515625 C-9.19140625 19.91015625 -9.19140625 19.91015625 -11.3359375 16.53515625 C-11.70396484 15.9628125 -12.07199219 15.39046875 -12.45117188 14.80078125 C-13.35968821 13.38491163 -14.25530227 11.96077828 -15.1484375 10.53515625 C-13.64017967 6.54270904 -11.30410802 4.94136696 -7.7734375 2.66015625 C-6.81695312 2.02335938 -5.86046875 1.3865625 -4.875 0.73046875 C-2.1484375 -0.46484375 -2.1484375 -0.46484375 0 0 Z " fill="#131313" transform="translate(451.1484375,136.46484375)"/>
<path d="M0 0 C0 5.94 0 11.88 0 18 C-5.61 18 -11.22 18 -17 18 C-18.125 9 -18.125 9 -18.0625 5 C-18.05347656 4.236875 -18.04445313 3.47375 -18.03515625 2.6875 C-18.02355469 2.130625 -18.01195312 1.57375 -18 1 C-16.31291777 0.82915623 -14.62530436 0.66355574 -12.9375 0.5 C-11.99777344 0.4071875 -11.05804688 0.314375 -10.08984375 0.21875 C-6.73417121 -0.01881974 -3.36407158 0 0 0 Z " fill="#141414" transform="translate(493,256)"/>
<path d="M0 0 C3.08832193 0.21180969 4.10487212 1.10157316 6.359375 3.28515625 C7.54273438 4.65994141 7.54273438 4.65994141 8.75 6.0625 C9.54921875 6.98160156 10.3484375 7.90070313 11.171875 8.84765625 C11.77515625 9.55792969 12.3784375 10.26820312 13 11 C11.50429125 14.56236008 9.47151401 16.72604957 6.625 19.3125 C5.85414062 20.03050781 5.08328125 20.74851562 4.2890625 21.48828125 C2 23 2 23 0.0078125 23.046875 C-2.89863634 21.53145031 -4.61996548 19.41209892 -6.75 16.9375 C-7.54921875 16.01839844 -8.3484375 15.09929687 -9.171875 14.15234375 C-9.77515625 13.44207031 -10.3784375 12.73179688 -11 12 C-9.55928394 8.58301375 -7.76769435 6.68041215 -4.9375 4.3125 C-3.86822266 3.40951172 -3.86822266 3.40951172 -2.77734375 2.48828125 C-1.89755859 1.75158203 -1.89755859 1.75158203 -1 1 C-0.67 0.67 -0.34 0.34 0 0 Z " fill="#0F0F0F" transform="translate(93,87)"/>
<path d="M0 0 C1.30078125 2.8359375 1.30078125 2.8359375 2.3125 6.375 C2.65925781 7.53773437 3.00601563 8.70046875 3.36328125 9.8984375 C4 13 4 13 3 16 C0.41796875 17.16796875 0.41796875 17.16796875 -2.8125 18.1875 C-3.87082031 18.53167969 -4.92914063 18.87585938 -6.01953125 19.23046875 C-9 20 -9 20 -13 20 C-13.67364661 17.91891315 -14.33866798 15.8350329 -15 13.75 C-15.37125 12.58984375 -15.7425 11.4296875 -16.125 10.234375 C-17 7 -17 7 -17 3 C-14.92085336 2.29994051 -12.83648414 1.61537756 -10.75 0.9375 C-9.58984375 0.55464844 -8.4296875 0.17179687 -7.234375 -0.22265625 C-2.35689956 -1.39489974 -2.35689956 -1.39489974 0 0 Z " fill="#131313" transform="translate(181,42)"/>
<path d="M0 0 C3.47775179 1.51553404 5.9557984 3.5773456 8.75 6.125 C9.54921875 6.84945312 10.3484375 7.57390625 11.171875 8.3203125 C11.77515625 8.87460938 12.3784375 9.42890625 13 10 C12.42555034 13.53208912 11.2055636 15.12893053 8.625 17.5625 C8.01914062 18.14128906 7.41328125 18.72007813 6.7890625 19.31640625 C6.19867188 19.87199219 5.60828125 20.42757812 5 21 C3.9966006 21.996589 2.99540941 22.99543038 2 24 C1.55269531 23.61328125 1.10539062 23.2265625 0.64453125 22.828125 C-2.8521026 19.81609925 -6.37407463 16.85678969 -10 14 C-9.46823005 9.86186295 -7.22067834 7.72917682 -4.4375 4.75 C-3.61121094 3.85796875 -2.78492188 2.9659375 -1.93359375 2.046875 C-1.29550781 1.37140625 -0.65742188 0.6959375 0 0 Z " fill="#0D0D0D" transform="translate(406,88)"/>
<path d="M0 0 C0.70189453 0.00451172 1.40378906 0.00902344 2.12695312 0.01367188 C3.85550538 0.02543073 5.58401365 0.04336546 7.3125 0.0625 C7.96973709 4.24915201 8.4330559 8.26191951 8.375 12.5 C8.36597656 13.36496094 8.35695312 14.22992188 8.34765625 15.12109375 C8.33605469 15.76175781 8.32445312 16.40242188 8.3125 17.0625 C5.49993719 17.08934312 2.68762759 17.10926188 -0.125 17.125 C-0.92744141 17.13337891 -1.72988281 17.14175781 -2.55664062 17.15039062 C-4.60045221 17.1590143 -6.64433902 17.1147815 -8.6875 17.0625 C-10.68366554 15.06633446 -10.09733427 11.24548037 -10.25 8.5 C-10.29318359 7.78908203 -10.33636719 7.07816406 -10.38085938 6.34570312 C-10.48721777 4.58488088 -10.58788846 2.8237168 -10.6875 1.0625 C-7.06882441 -0.1437252 -3.76243749 -0.04566918 0 0 Z " fill="#121212" transform="translate(236.6875,30.9375)"/>
<path d="M0 0 C2.65087861 0.75611306 5.29475636 1.52888273 7.9375 2.3125 C8.69224609 2.52583984 9.44699219 2.73917969 10.22460938 2.95898438 C12.18006686 3.54649851 14.09481954 4.26564705 16 5 C17.35304209 9.05912626 16.15216503 10.77149591 14.5625 14.6875 C14.08941406 15.86699219 13.61632812 17.04648438 13.12890625 18.26171875 C12.75636719 19.16535156 12.38382813 20.06898438 12 21 C6.0870696 20.35729017 0.65755469 18.80996216 -5 17 C-4.54619105 15.10307857 -4.08675008 13.20750405 -3.625 11.3125 C-3.36976562 10.25675781 -3.11453125 9.20101562 -2.8515625 8.11328125 C-2.08094511 5.29593234 -1.14501457 2.68331675 0 0 Z " fill="#111111" transform="translate(21,191)"/>
<path d="M0 0 C3.13143586 1.48757674 4.71827224 3.74612532 6.86328125 6.44140625 C7.6625 7.43011719 8.46171875 8.41882813 9.28515625 9.4375 C11.11328125 12.00390625 11.11328125 12.00390625 11.11328125 14.00390625 C9.14390464 15.62746971 7.17982977 17.13950191 5.11328125 18.62890625 C4.5409375 19.04914063 3.96859375 19.469375 3.37890625 19.90234375 C1.96124192 20.94196426 0.53778863 21.97368216 -0.88671875 23.00390625 C-4.76686811 21.48330718 -6.62578437 19.14312094 -9.13671875 15.87890625 C-9.843125 14.96882813 -10.54953125 14.05875 -11.27734375 13.12109375 C-11.8084375 12.42242187 -12.33953125 11.72375 -12.88671875 11.00390625 C-11.72200066 9.83918816 -10.5558083 8.67591238 -9.3828125 7.51953125 C-8.34871068 6.4719294 -7.34215724 5.39667142 -6.359375 4.30078125 C-2.41488405 0.00499976 -2.41488405 0.00499976 0 0 Z " fill="#0F0F0F" transform="translate(429.88671875,110.99609375)"/>
<path d="M0 0 C3.68069887 1.53643852 5.98775204 3.78150945 8.75 6.625 C9.54921875 7.44226563 10.3484375 8.25953125 11.171875 9.1015625 C11.77515625 9.72804688 12.3784375 10.35453125 13 11 C10.2520787 15.27454425 7.30749011 19.14126153 4 23 C-0.00735217 22.39889717 -2.55469371 20.33397972 -5.75 17.9375 C-6.73484375 17.20402344 -7.7196875 16.47054687 -8.734375 15.71484375 C-9.48203125 15.14894531 -10.2296875 14.58304688 -11 14 C-9.42219077 10.28954753 -7.09296752 7.70093616 -4.375 4.75 C-3.55773437 3.85796875 -2.74046875 2.9659375 -1.8984375 2.046875 C-1.27195312 1.37140625 -0.64546875 0.6959375 0 0 Z " fill="#0D0D0D" transform="translate(71,109)"/>
<path d="M0 0 C5.86809507 0.52393706 10.54873741 1.76108858 16 4 C15.46246904 10.18160604 13.45417612 15.326858 11 21 C9.26982492 20.54548816 7.54090123 20.08621143 5.8125 19.625 C4.36810547 19.24214844 4.36810547 19.24214844 2.89453125 18.8515625 C0.17789793 18.05233704 -2.39137175 17.0968638 -5 16 C-4.54762239 14.08191891 -4.08785537 12.16557967 -3.625 10.25 C-3.24214844 8.64898437 -3.24214844 8.64898437 -2.8515625 7.015625 C-2.12466459 4.44147278 -1.2973776 2.32399814 0 0 Z " fill="#111111" transform="translate(322,42)"/>
<path d="M0 0 C2.06242617 -0.02717692 4.12495703 -0.0464758 6.1875 -0.0625 C7.33605469 -0.07410156 8.48460937 -0.08570312 9.66796875 -0.09765625 C13 0 13 0 18 1 C17.67 6.61 17.34 12.22 17 18 C11.39 17.67 5.78 17.34 0 17 C-1.54897985 13.9020403 -0.83239539 10.73783448 -0.5625 7.375 C-0.51029297 6.66859375 -0.45808594 5.9621875 -0.40429688 5.234375 C-0.27458793 3.48920013 -0.13795046 1.74454275 0 0 Z " fill="#131313" transform="translate(258,31)"/>
<path d="M0 0 C1.65 5.28 3.3 10.56 5 16 C-8.25892857 20.28571429 -8.25892857 20.28571429 -13 20 C-13.6700834 17.87607494 -14.33596797 15.75082476 -15 13.625 C-15.37125 12.44164062 -15.7425 11.25828125 -16.125 10.0390625 C-17 7 -17 7 -17 5 C-14.91999989 4.15838146 -12.83585854 3.32699237 -10.75 2.5 C-9.58984375 2.0359375 -8.4296875 1.571875 -7.234375 1.09375 C-4 0 -4 0 0 0 Z " fill="#121212" transform="translate(480,194)"/>
<path d="M0 0 C1.60546875 2.87109375 1.60546875 2.87109375 3.1875 6.4375 C3.71730469 7.61183594 4.24710937 8.78617188 4.79296875 9.99609375 C6 13 6 13 6 15 C3.7101766 16.0044134 1.4183401 17.00367612 -0.875 18 C-1.52597656 18.28617188 -2.17695313 18.57234375 -2.84765625 18.8671875 C-7.7734375 21 -7.7734375 21 -10 21 C-11.00696568 18.89915791 -12.0053589 16.79420511 -13 14.6875 C-13.556875 13.51574219 -14.11375 12.34398437 -14.6875 11.13671875 C-16 8 -16 8 -16 5 C-13.90163996 3.96728358 -11.79609109 2.94916283 -9.6875 1.9375 C-8.51574219 1.36902344 -7.34398437 0.80054688 -6.13671875 0.21484375 C-3 -1 -3 -1 0 0 Z " fill="#0F0F0F" transform="translate(468,165)"/>
<path d="M0 0 C3.89006773 1.38780795 6.96558708 3.2152227 10.3125 5.625 C11.19550781 6.25664063 12.07851563 6.88828125 12.98828125 7.5390625 C13.98408203 8.26222656 13.98408203 8.26222656 15 9 C13.65070536 12.83663072 11.92248975 15.65172569 9.375 18.8125 C8.74335938 19.60269531 8.11171875 20.39289063 7.4609375 21.20703125 C6.97882813 21.79871094 6.49671875 22.39039062 6 23 C2.37723685 21.6744419 -0.63505348 20.05653045 -3.8125 17.875 C-4.60269531 17.33617188 -5.39289063 16.79734375 -6.20703125 16.2421875 C-6.79871094 15.83226563 -7.39039063 15.42234375 -8 15 C-6.51194289 9.19657726 -3.40902445 4.82409121 0 0 Z " fill="#0B0B0B" transform="translate(380,69)"/>
<path d="M0 0 C5.19644079 1.59890486 10.06612142 3.74138003 15 6 C14.37183502 9.94949704 13.1354471 13.19892028 11.4375 16.8125 C10.98246094 17.78832031 10.52742188 18.76414063 10.05859375 19.76953125 C9.70925781 20.50558594 9.35992187 21.24164063 9 22 C3.53262809 20.25192871 -1.75824848 18.34205919 -7 16 C-6.40165275 11.85701333 -4.99335715 8.81805623 -2.9375 5.1875 C-2.11572266 3.72376953 -2.11572266 3.72376953 -1.27734375 2.23046875 C-0.85582031 1.49441406 -0.43429688 0.75835937 0 0 Z " fill="#0B0B0B" transform="translate(34,162)"/>
<path d="M0 0 C1.47309111 2.10019014 2.81309635 4.17767729 4.125 6.375 C4.68380859 7.27992187 4.68380859 7.27992187 5.25390625 8.203125 C8 12.72965316 8 12.72965316 8 15 C5.85718967 16.46582355 3.73293604 17.81123514 1.5 19.125 C0.56994141 19.68380859 0.56994141 19.68380859 -0.37890625 20.25390625 C-1.91537838 21.17578953 -3.45720675 22.08873475 -5 23 C-7.69043671 20.4031437 -10.0394077 17.76444405 -12.25 14.75 C-12.77078125 14.04359375 -13.2915625 13.3371875 -13.828125 12.609375 C-14.21484375 12.07828125 -14.6015625 11.5471875 -15 11 C-13.49471893 6.95007711 -11.11269686 5.4746607 -7.5 3.25 C-6.03046875 2.32960938 -6.03046875 2.32960938 -4.53125 1.390625 C-2 0 -2 0 0 0 Z " fill="#090909" transform="translate(122,68)"/>
<path d="M0 0 C8.415 1.485 8.415 1.485 17 3 C15.98086093 8.96924314 14.92338063 14.22985812 13 20 C7.72 19.01 2.44 18.02 -3 17 C-2.43494693 10.97276728 -1.49994998 5.99979992 0 0 Z " fill="#0A0A0A" transform="translate(291,34)"/>
<path d="M0 0 C0.66 5.28 1.32 10.56 2 16 C-2.287325 17.42910833 -5.07971175 18.27673339 -9.375 18.625 C-10.24898437 18.69976562 -11.12296875 18.77453125 -12.0234375 18.8515625 C-12.67570313 18.90054688 -13.32796875 18.94953125 -14 19 C-14.50806447 17.27318563 -15.00610467 15.54342021 -15.5 13.8125 C-15.91765625 12.36810547 -15.91765625 12.36810547 -16.34375 10.89453125 C-16.96677608 8.14654124 -17.12302812 5.80401584 -17 3 C-15.10614563 2.49255577 -13.20981334 1.99435426 -11.3125 1.5 C-9.72888672 1.08234375 -9.72888672 1.08234375 -8.11328125 0.65625 C-5 0 -5 0 0 0 Z " fill="#080808" transform="translate(212,34)"/>
</svg>
